<svg xmlns="http://www.w3.org/2000/svg"  viewBox="0 0 48 48" width="240px" height="240px" baseProfile="basic"><linearGradient id="8KGkFVcxUoT45ZuTT1nV-a" x1="13.908" x2="28.119" y1="13.908" y2="28.119" gradientUnits="userSpaceOnUse"><stop offset="0" stop-color="#262626" stop-opacity="0"/><stop offset="1" stop-color="#262626" stop-opacity=".8"/></linearGradient><circle cx="24" cy="24" r="4" fill="url(#8KGkFVcxUoT45ZuTT1nV-a)"/><linearGradient id="8KGkFVcxUoT45ZuTT1nV-b" x1="-9.419" x2="72.908" y1="-9.419" y2="72.908" gradientUnits="userSpaceOnUse"><stop offset="0" stop-color="#262626" stop-opacity="0"/><stop offset="1" stop-color="#262626" stop-opacity=".8"/></linearGradient><path fill="url(#8KGkFVcxUoT45ZuTT1nV-b)" d="M24,35C11.458,35,2,30.271,2,24s9.458-11,22-11s22,4.729,22,11S36.542,35,24,35z M24,17	c-10.302,0-18,3.696-18,7s7.698,7,18,7s18-3.696,18-7S34.302,17,24,17z"/><linearGradient id="8KGkFVcxUoT45ZuTT1nV-c" x1="-16.967" x2="83.954" y1="-16.967" y2="83.954" gradientUnits="userSpaceOnUse"><stop offset="0" stop-color="#262626" stop-opacity="0"/><stop offset="1" stop-color="#262626" stop-opacity=".8"/></linearGradient><path fill="url(#8KGkFVcxUoT45ZuTT1nV-c)" d="M31.722,43.902c-2.204,0-4.711-0.962-7.331-2.85c-3.586-2.583-7.107-6.686-9.917-11.552	s-4.602-9.967-5.046-14.364C8.927,10.185,10.196,6.566,13,4.948c2.805-1.621,6.573-0.908,10.609,2	c3.586,2.583,7.107,6.686,9.917,11.552s4.602,9.967,5.046,14.364c0.501,4.951-0.769,8.569-3.572,10.188l0,0	C34.016,43.621,32.913,43.902,31.722,43.902z M16.292,8.103c-0.496,0-0.933,0.102-1.292,0.309c-1.32,0.762-1.916,3.125-1.593,6.322	c0.389,3.846,1.998,8.38,4.531,12.767c2.532,4.387,5.654,8.047,8.79,10.307c2.606,1.878,4.953,2.543,6.271,1.782l0,0	c1.32-0.762,1.916-3.125,1.593-6.322c-0.389-3.846-1.998-8.38-4.531-12.767c-2.532-4.387-5.654-8.047-8.79-10.307	C19.375,8.827,17.617,8.103,16.292,8.103z"/><linearGradient id="8KGkFVcxUoT45ZuTT1nV-d" x1=".865" x2="57.858" y1=".865" y2="57.858" gradientUnits="userSpaceOnUse"><stop offset="0" stop-color="#262626" stop-opacity="0"/><stop offset="1" stop-color="#262626" stop-opacity=".8"/></linearGradient><path fill="url(#8KGkFVcxUoT45ZuTT1nV-d)" d="M16.278,43.902c-1.191,0-2.294-0.281-3.278-0.85c-2.804-1.619-4.073-5.237-3.572-10.188	c0.444-4.397,2.236-9.498,5.046-14.364s6.331-8.969,9.917-11.552c4.036-2.908,7.803-3.621,10.609-2	c2.804,1.619,4.073,5.237,3.572,10.188c-0.444,4.397-2.236,9.498-5.046,14.364s-6.331,8.969-9.917,11.552	C20.989,42.94,18.482,43.902,16.278,43.902z M31.708,8.103c-1.325,0-3.083,0.725-4.979,2.091c-3.136,2.26-6.258,5.92-8.79,10.307	c-2.533,4.387-4.143,8.921-4.531,12.767c-0.323,3.196,0.272,5.56,1.593,6.322l0,0c1.319,0.763,3.665,0.097,6.271-1.782	c3.136-2.26,6.258-5.92,8.79-10.307c2.533-4.387,4.143-8.921,4.531-12.767c0.323-3.196-0.272-5.56-1.593-6.322	C32.641,8.204,32.204,8.103,31.708,8.103z"/></svg>